<mxfile host="app.diagrams.net" modified="2023-10-09T01:43:20.733Z" agent="Mozilla/5.0 (Windows NT 10.0; Win64; x64) AppleWebKit/537.36 (KHTML, like Gecko) Chrome/117.0.0.0 Safari/537.36" etag="1Tz10slT5USZ5qSA0EYF" version="22.0.4" type="device">
  <diagram id="xxyQ-FeMVdNZKL3so5_O" name="Halaman-1">
    <mxGraphModel dx="2625" dy="1453" grid="1" gridSize="10" guides="1" tooltips="1" connect="1" arrows="1" fold="1" page="1" pageScale="1" pageWidth="827" pageHeight="1169" math="0" shadow="0">
      <root>
        <mxCell id="0" />
        <mxCell id="1" parent="0" />
        <mxCell id="-wgZUOUTTybgCuyCcbOL-4" value="" style="edgeStyle=orthogonalEdgeStyle;rounded=0;orthogonalLoop=1;jettySize=auto;html=1;fontSize=11;" parent="1" source="-wgZUOUTTybgCuyCcbOL-2" target="-wgZUOUTTybgCuyCcbOL-3" edge="1">
          <mxGeometry relative="1" as="geometry" />
        </mxCell>
        <mxCell id="-wgZUOUTTybgCuyCcbOL-2" value="Start" style="strokeWidth=2;html=1;shape=mxgraph.flowchart.start_1;whiteSpace=wrap;" parent="1" vertex="1">
          <mxGeometry x="93.75" y="60" width="100" height="60" as="geometry" />
        </mxCell>
        <mxCell id="-wgZUOUTTybgCuyCcbOL-6" value="" style="edgeStyle=orthogonalEdgeStyle;rounded=0;orthogonalLoop=1;jettySize=auto;html=1;fontSize=10;" parent="1" source="-wgZUOUTTybgCuyCcbOL-3" target="-wgZUOUTTybgCuyCcbOL-5" edge="1">
          <mxGeometry relative="1" as="geometry" />
        </mxCell>
        <mxCell id="-wgZUOUTTybgCuyCcbOL-3" value="String ExpeditionName&lt;br&gt;int weightItem, int totalDistance, &lt;br style=&quot;font-size: 11px;&quot;&gt;String sender, String startDate, &lt;br&gt;String endDate,&lt;br&gt;String receiver,&lt;br&gt;String Addresses, &lt;br&gt;Int totalParticipants&lt;br&gt;String NameProduct&lt;br&gt;int AvarageSpeed&lt;br&gt;int&amp;nbsp;costPerParticipant" style="verticalLabelPosition=middle;verticalAlign=middle;html=1;shape=hexagon;perimeter=hexagonPerimeter2;arcSize=6;size=0.27;align=center;labelPosition=center;fontSize=11;" parent="1" vertex="1">
          <mxGeometry x="27.940000000000005" y="150" width="231.62" height="150" as="geometry" />
        </mxCell>
        <mxCell id="Fx3H6aQY3u1EliB6IrVw-2" value="" style="edgeStyle=orthogonalEdgeStyle;rounded=0;orthogonalLoop=1;jettySize=auto;html=1;" edge="1" parent="1" source="-wgZUOUTTybgCuyCcbOL-5" target="Fx3H6aQY3u1EliB6IrVw-1">
          <mxGeometry relative="1" as="geometry" />
        </mxCell>
        <mxCell id="-wgZUOUTTybgCuyCcbOL-5" value="&lt;font style=&quot;font-size: 10px;&quot;&gt;Input ExpeditionName&lt;br&gt;Sender, Receiver&lt;br&gt;Weight Item, Adresses, NameProduct, &lt;br&gt;Wight Item, startDate, endDate, &lt;br&gt;totalParticipants and Distance&amp;nbsp;&lt;/font&gt;" style="shape=parallelogram;html=1;strokeWidth=2;perimeter=parallelogramPerimeter;whiteSpace=wrap;rounded=1;arcSize=12;size=0.23;fontSize=11;" parent="1" vertex="1">
          <mxGeometry x="20" y="330" width="247.5" height="120" as="geometry" />
        </mxCell>
        <mxCell id="Fx3H6aQY3u1EliB6IrVw-7" value="" style="edgeStyle=orthogonalEdgeStyle;rounded=0;orthogonalLoop=1;jettySize=auto;html=1;" edge="1" parent="1" source="Fx3H6aQY3u1EliB6IrVw-1" target="Fx3H6aQY3u1EliB6IrVw-6">
          <mxGeometry relative="1" as="geometry" />
        </mxCell>
        <mxCell id="Fx3H6aQY3u1EliB6IrVw-1" value="&lt;div style=&quot;text-align: left;&quot;&gt;&lt;span style=&quot;background-color: initial;&quot;&gt;totalTime =&amp;nbsp; totalDistance/avarageSpeed&lt;/span&gt;&lt;/div&gt;&lt;div style=&quot;text-align: left;&quot;&gt;&lt;span style=&quot;background-color: initial;&quot;&gt;&lt;br&gt;&lt;/span&gt;&lt;/div&gt;&lt;div style=&quot;text-align: left;&quot;&gt;&lt;span style=&quot;background-color: initial;&quot;&gt;totalCostParticipants=&amp;nbsp; totalParticipants * costPerParticipant&lt;/span&gt;&lt;/div&gt;&lt;div style=&quot;text-align: left;&quot;&gt;&lt;span style=&quot;background-color: initial;&quot;&gt;&lt;br&gt;&lt;/span&gt;&lt;/div&gt;&lt;div style=&quot;text-align: left;&quot;&gt;&lt;span style=&quot;background-color: initial;&quot;&gt;totalCostExpedition = totalTime * totalCostParticipants&lt;/span&gt;&lt;/div&gt;" style="rounded=1;whiteSpace=wrap;html=1;" vertex="1" parent="1">
          <mxGeometry x="24.529999999999998" y="490" width="238.44" height="120" as="geometry" />
        </mxCell>
        <mxCell id="Fx3H6aQY3u1EliB6IrVw-9" value="" style="edgeStyle=orthogonalEdgeStyle;rounded=0;orthogonalLoop=1;jettySize=auto;html=1;" edge="1" parent="1" source="Fx3H6aQY3u1EliB6IrVw-6" target="Fx3H6aQY3u1EliB6IrVw-8">
          <mxGeometry relative="1" as="geometry" />
        </mxCell>
        <mxCell id="Fx3H6aQY3u1EliB6IrVw-6" value="&lt;span style=&quot;font-size: 10px;&quot;&gt;Print&amp;nbsp;&lt;/span&gt;ExpeditionName&lt;br style=&quot;border-color: var(--border-color); font-size: 10px;&quot;&gt;&lt;span style=&quot;font-size: 10px;&quot;&gt;Sender, Receiver&lt;/span&gt;&lt;br style=&quot;border-color: var(--border-color); font-size: 10px;&quot;&gt;&lt;span style=&quot;font-size: 10px;&quot;&gt;Weight Item, Adresses, NameProduct,&lt;/span&gt;&lt;br style=&quot;border-color: var(--border-color); font-size: 10px;&quot;&gt;&lt;span style=&quot;font-size: 10px;&quot;&gt;Wight Item, totaCostExpedition&lt;/span&gt;" style="shape=parallelogram;html=1;strokeWidth=2;perimeter=parallelogramPerimeter;whiteSpace=wrap;rounded=1;arcSize=12;size=0.23;fontSize=11;" vertex="1" parent="1">
          <mxGeometry x="20" y="650" width="247.5" height="120" as="geometry" />
        </mxCell>
        <mxCell id="Fx3H6aQY3u1EliB6IrVw-8" value="End" style="ellipse;whiteSpace=wrap;html=1;" vertex="1" parent="1">
          <mxGeometry x="84" y="830" width="120" height="80" as="geometry" />
        </mxCell>
      </root>
    </mxGraphModel>
  </diagram>
</mxfile>
